name rise30.2954peak35.7071fall66.7804.mot
datacolumns 19
datarows 23
range 16.69827600000000 16.73493800000000
endheader
time	ground_force1_vx	ground_force1_vy	ground_force1_vz	ground_force1_px	ground_force1_py	ground_force1_pz	ground_force2_vx	ground_force2_vy	ground_force2_vz	ground_force2_px	ground_force2_py	ground_force2_pz	ground_torque1_x	ground_torque1_y	ground_torque1_z	ground_torque2_x	ground_torque2_y	ground_torque2_z	
16.69827600000000	-35.90090000000000	781.32817799999998	47.60693000000000	0.07648400000000	0.00000000000000	0.11240600000000	-2.63801000000000	26.27918000000000	2.45444700000000	0.25957700000000	0.00000000000000	-0.08211300000000	0.00000000000000	16.24099800000000	0.00000000000000	0.00000000000000	0.86770700000000	0.00000000000000	
16.69994200000000	-36.65956200000000	779.75508800000000	47.49619300000000	0.07560500000000	0.00000000000000	0.11230900000000	-3.08058600000000	32.40470700000000	2.93130700000000	0.26749800000000	0.00000000000000	-0.08187700000000	0.00000000000000	16.25084700000000	0.00000000000000	0.00000000000000	1.08003100000000	0.00000000000000	
16.70160900000000	-37.43680000000000	778.08298400000001	47.37385400000000	0.07473600000000	0.00000000000000	0.11221000000000	-3.49118200000000	38.80058800000000	3.40091000000000	0.27450500000000	0.00000000000000	-0.08166800000000	0.00000000000000	16.26403800000000	0.00000000000000	0.00000000000000	1.30062600000000	0.00000000000000	
16.70326900000000	-38.23243500000000	776.30877599999997	47.23942900000000	0.07387500000000	0.00000000000000	0.11211000000000	-3.85337400000000	45.35000200000000	3.84981400000000	0.28074100000000	0.00000000000000	-0.08148300000000	0.00000000000000	16.28060100000000	0.00000000000000	0.00000000000000	1.52387200000000	0.00000000000000	
16.70493700000000	-39.04620300000000	774.42931499999997	47.09244100000000	0.07302200000000	0.00000000000000	0.11200700000000	-4.15323900000000	51.94696200000000	4.26636800000000	0.28631900000000	0.00000000000000	-0.08132000000000	0.00000000000000	16.30054500000000	0.00000000000000	0.00000000000000	1.74450900000000	0.00000000000000	
16.70660400000000	-39.87775400000000	772.44139500000006	46.93242400000000	0.07217800000000	0.00000000000000	0.11190300000000	-4.38005600000000	58.50320500000000	4.64135900000000	0.29133200000000	0.00000000000000	-0.08117700000000	0.00000000000000	16.32385900000000	0.00000000000000	0.00000000000000	1.95797500000000	0.00000000000000	
16.70827000000000	-40.72664900000000	770.34175800000003	46.75892500000000	0.07134300000000	0.00000000000000	0.11179700000000	-4.52665900000000	64.95263900000000	4.96836000000000	0.29585000000000	0.00000000000000	-0.08105100000000	0.00000000000000	16.35051200000000	0.00000000000000	0.00000000000000	2.16063600000000	0.00000000000000	
16.70994000000000	-41.59235800000000	768.12710100000004	46.57150500000000	0.07051500000000	0.00000000000000	0.11168900000000	-4.58943800000000	71.25328000000000	5.24380800000000	0.29993600000000	0.00000000000000	-0.08094300000000	0.00000000000000	16.38045000000000	0.00000000000000	0.00000000000000	2.34990400000000	0.00000000000000	
16.71160300000000	-42.47425900000000	765.79408400000000	46.36974100000000	0.06969400000000	0.00000000000000	0.11157900000000	-4.56806000000000	77.38688500000001	5.46682000000000	0.30363900000000	0.00000000000000	-0.08084900000000	0.00000000000000	16.41359800000000	0.00000000000000	0.00000000000000	2.52425400000000	0.00000000000000	
16.71327000000000	-43.37163500000000	763.33933300000001	46.15322700000000	0.06888100000000	0.00000000000000	0.11146800000000	-4.46497100000000	83.35669799999999	5.63883600000000	0.30700000000000	0.00000000000000	-0.08077000000000	0.00000000000000	16.44986200000000	0.00000000000000	0.00000000000000	2.68314400000000	0.00000000000000	
16.71493800000000	-44.28367600000000	760.75944900000002	45.92158000000000	0.06807400000000	0.00000000000000	0.11135500000000	-4.28475500000000	89.18382099999999	5.76311300000000	0.31005500000000	0.00000000000000	-0.08070400000000	0.00000000000000	16.48912500000000	0.00000000000000	0.00000000000000	2.82686600000000	0.00000000000000	
16.71660600000000	-45.20947300000000	758.05101800000000	45.67443600000000	0.06727300000000	0.00000000000000	0.11124100000000	-4.03343600000000	94.90274800000000	5.84417700000000	0.31283300000000	0.00000000000000	-0.08065100000000	0.00000000000000	16.53124600000000	0.00000000000000	0.00000000000000	2.95635900000000	0.00000000000000	
16.71827300000000	-46.14802400000000	755.21061599999996	45.41145600000000	0.06647800000000	0.00000000000000	0.11112500000000	-3.71778600000000	100.55658300000000	5.88725000000000	0.31536000000000	0.00000000000000	-0.08060900000000	0.00000000000000	16.57606800000000	0.00000000000000	0.00000000000000	3.07299500000000	0.00000000000000	
16.71993900000000	-47.09822900000000	752.23482100000001	45.13232400000000	0.06568800000000	0.00000000000000	0.11100800000000	-3.34469300000000	106.19238500000000	5.89772600000000	0.31765900000000	0.00000000000000	-0.08057900000000	0.00000000000000	16.62340700000000	0.00000000000000	0.00000000000000	3.17837000000000	0.00000000000000	
16.72160200000000	-48.05888900000000	749.12022000000002	44.83675400000000	0.06490200000000	0.00000000000000	0.11088900000000	-2.92063700000000	111.85698499999999	5.88072600000000	0.31974700000000	0.00000000000000	-0.08055900000000	0.00000000000000	16.67306400000000	0.00000000000000	0.00000000000000	3.27411600000000	0.00000000000000	
16.72327200000000	-49.02871400000000	745.86342100000002	44.52448500000000	0.06412000000000	0.00000000000000	0.11076900000000	-2.45128400000000	117.59353000000000	5.84074200000000	0.32164300000000	0.00000000000000	-0.08054900000000	0.00000000000000	16.72481600000000	0.00000000000000	0.00000000000000	3.36173800000000	0.00000000000000	
16.72493800000000	-50.00631500000000	742.46106199999997	44.19529100000000	0.06334100000000	0.00000000000000	0.11064800000000	-1.94122600000000	123.43888500000000	5.78139700000000	0.32336100000000	0.00000000000000	-0.08054800000000	0.00000000000000	16.77842000000000	0.00000000000000	0.00000000000000	3.44249600000000	0.00000000000000	
16.72660300000000	-50.99020900000000	738.90981999999997	43.84897200000000	0.06256400000000	0.00000000000000	0.11052600000000	-1.39384400000000	129.42195200000000	5.70530900000000	0.32491300000000	0.00000000000000	-0.08055600000000	0.00000000000000	16.83361600000000	0.00000000000000	0.00000000000000	3.51732400000000	0.00000000000000	
16.72827000000000	-51.97882300000000	735.20642899999996	43.48536500000000	0.06178900000000	0.00000000000000	0.11040200000000	-0.81129700000000	135.56285299999999	5.61405700000000	0.32631300000000	0.00000000000000	-0.08057300000000	0.00000000000000	16.89012400000000	0.00000000000000	0.00000000000000	3.58679400000000	0.00000000000000	
16.72994100000000	-52.97049200000000	731.34768399999996	43.10434100000000	0.06101500000000	0.00000000000000	0.11027800000000	-0.19460200000000	141.87290100000001	5.50822700000000	0.32756900000000	0.00000000000000	-0.08059800000000	0.00000000000000	16.94764500000000	0.00000000000000	0.00000000000000	3.65111100000000	0.00000000000000	
16.73160600000000	-53.96346400000000	727.33046100000001	42.70580500000000	0.06024200000000	0.00000000000000	0.11015200000000	0.45620000000000	148.35520099999999	5.38753100000000	0.32869100000000	0.00000000000000	-0.08063000000000	0.00000000000000	17.00586600000000	0.00000000000000	0.00000000000000	3.71014500000000	0.00000000000000	
16.73327400000000	-54.95590000000000	723.15172500000006	42.28970100000000	0.05946700000000	0.00000000000000	0.11002600000000	1.14184200000000	155.00572700000001	5.25096100000000	0.32968800000000	0.00000000000000	-0.08067000000000	0.00000000000000	17.06445300000000	0.00000000000000	0.00000000000000	3.76347500000000	0.00000000000000	
16.73493800000000	-55.94588000000000	718.80854899999997	41.85600900000000	0.05869200000000	0.00000000000000	0.10989900000000	1.86359300000000	161.81471199999999	5.09697600000000	0.33056700000000	0.00000000000000	-0.08071600000000	0.00000000000000	17.12306100000000	0.00000000000000	0.00000000000000	3.81045600000000	0.00000000000000	
